<svg width="50" height="51" viewBox="0 0 50 51" fill="none" xmlns="http://www.w3.org/2000/svg">
<path d="M0 50.1285V0.12854H50V50.1285H0ZM3.07377 11.8089H11.6803V3.20231H3.07377V11.8089ZM14.8224 11.8089H23.429V3.20231H14.8224V11.8089ZM26.5027 11.8089H35.1093V3.20231H26.5027V11.8089ZM38.2514 11.8089H46.9262V3.20231H38.2514V11.8089ZM3.07377 23.5575H11.6803V14.9509H3.07377V23.5575ZM14.8224 23.5575H23.429V14.9509H14.8224V23.5575ZM26.5027 23.5575H35.1093V14.9509H26.5027V23.5575ZM38.2514 23.5575H46.9262V14.9509H38.2514V23.5575ZM3.07377 35.2378H11.6803V26.6313H3.07377V35.2378ZM14.8224 35.2378H23.429V26.6313H14.8224V35.2378ZM26.5027 35.2378H35.1093V26.6313H26.5027V35.2378ZM38.2514 35.2378H46.9262V26.6313H38.2514V35.2378ZM3.07377 47.0548H11.6803V38.3116H3.07377V47.0548ZM14.8224 47.0548H23.429V38.3116H14.8224V47.0548ZM26.5027 47.0548H35.1093V38.3116H26.5027V47.0548ZM38.2514 47.0548H46.9262V38.3116H38.2514V47.0548Z" fill="black"/>
</svg>
