<svg width="600" height="600" viewBox="0 0 600 600" fill="none" xmlns="http://www.w3.org/2000/svg">
<rect width="600" height="600" fill="black"/>
<path d="M129 471V129H471V471H129ZM150.025 208.893H208.893V150.025H150.025V208.893ZM230.385 208.893H289.254V150.025H230.385V208.893ZM310.279 208.893H369.148V150.025H310.279V208.893ZM390.639 208.893H449.975V150.025H390.639V208.893ZM150.025 289.254H208.893V230.385H150.025V289.254ZM230.385 289.254H289.254V230.385H230.385V289.254ZM310.279 289.254H369.148V230.385H310.279V289.254ZM390.639 289.254H449.975V230.385H390.639V289.254ZM150.025 369.148H208.893V310.279H150.025V369.148ZM230.385 369.148H289.254V310.279H230.385V369.148ZM310.279 369.148H369.148V310.279H310.279V369.148ZM390.639 369.148H449.975V310.279H390.639V369.148ZM150.025 449.975H208.893V390.172H150.025V449.975ZM230.385 449.975H289.254V390.172H230.385V449.975ZM310.279 449.975H369.148V390.172H310.279V449.975ZM390.639 449.975H449.975V390.172H390.639V449.975Z" fill="white"/>
</svg>
