<svg width="400" height="63" viewBox="0 0 400 63" fill="none" xmlns="http://www.w3.org/2000/svg">
<path d="M391.92 29.0813H375.182V51.2302H367.101V0.872009H375.182V22.2995H391.92V0.872009H400V51.2302H391.92V29.0813Z" fill="white"/>
<path d="M344.331 7.65378V51.2302H336.251V7.65378H320.451V0.872009H360.131V7.65378H344.331Z" fill="white"/>
<path d="M288.829 1.12851V31.4012C288.829 33.4241 288.878 35.2588 288.976 36.9054C289.124 38.5519 289.492 39.9632 290.082 41.1393C290.672 42.2684 291.557 43.1387 292.737 43.7502C293.917 44.3618 295.539 44.6676 297.604 44.6676C299.669 44.6676 301.291 44.3618 302.471 43.7502C303.651 43.1387 304.536 42.2684 305.126 41.1393C305.716 39.9632 306.06 38.5519 306.158 36.9054C306.306 35.2588 306.38 33.4241 306.38 31.4012V1.12851H314.639V29.9899C314.639 33.5182 314.418 36.6231 313.975 39.3046C313.582 41.9391 312.771 44.1501 311.542 45.9378C310.313 47.6784 308.567 48.9956 306.306 49.8895C304.094 50.7833 301.193 51.2302 297.604 51.2302C294.015 51.2302 291.09 50.7833 288.829 49.8895C286.616 48.9956 284.896 47.6784 283.667 45.9378C282.438 44.1501 281.602 41.9391 281.16 39.3046C280.766 36.6231 280.57 33.5182 280.57 29.9899V1.12851H288.829Z" fill="white"/>
<path d="M265.459 51.2302L261.635 37.811H245.619L241.795 51.2302H233.57L248.288 0.872009H259.327L274.044 51.2302H265.459ZM253.916 9.02456H253.338L247.134 31.1014H260.12L253.916 9.02456Z" fill="white"/>
<path d="M218.619 51.2303C218.09 51.2303 217.826 50.9657 217.826 50.4366V27.7827C217.826 25.5702 217.369 23.9589 216.455 22.9488C215.589 21.8907 214.219 21.3616 212.343 21.3616C210.563 21.3616 208.808 21.8907 207.076 22.9488C205.345 23.9589 203.276 25.6664 200.871 28.0712L200.727 22.2274C202.266 20.5921 203.757 19.2453 205.2 18.1872C206.643 17.129 208.11 16.3354 209.601 15.8063C211.14 15.2773 212.752 15.0127 214.435 15.0127C217.898 15.0127 220.519 16.0228 222.299 18.0429C224.127 20.0149 225.04 22.9969 225.04 26.989V50.4366C225.04 50.9657 224.8 51.2303 224.319 51.2303H218.619ZM195.749 51.2303C195.22 51.2303 194.955 50.9657 194.955 50.4366V24.8246C194.955 23.4779 194.883 22.059 194.739 20.568C194.643 19.0289 194.547 17.8024 194.45 16.8885C194.354 16.2152 194.619 15.8785 195.244 15.8785H200.366C200.847 15.8785 201.136 16.119 201.232 16.5999C201.328 17.0328 201.425 17.634 201.521 18.4036C201.617 19.1732 201.713 19.9908 201.809 20.8566C201.906 21.7223 201.954 22.4679 201.954 23.0931L202.17 25.4018V50.4366C202.17 50.9657 201.906 51.2303 201.376 51.2303H195.749Z" fill="white"/>
<path d="M171.458 51.2302C166.484 51.2302 162.705 50.0943 160.121 47.8225C157.585 45.5507 156.317 42.1677 156.317 37.6735V27.8208C156.317 23.0303 157.585 19.4004 160.121 16.931C162.656 14.4123 166.411 13.1529 171.384 13.1529C176.309 13.1529 180.04 14.3629 182.575 16.7829C185.111 19.2028 186.378 22.734 186.378 27.3764V33.1546C186.378 33.6979 186.135 33.9695 185.647 33.9695H163.631V36.3401C163.631 39.3527 164.265 41.5504 165.533 42.9332C166.801 44.3161 168.849 45.0075 171.677 45.0075C173.823 45.0075 175.48 44.6618 176.651 43.9703C177.821 43.2789 178.406 42.2171 178.406 40.7849C178.406 40.2416 178.699 39.97 179.284 39.97H184.916C185.354 39.97 185.623 40.2169 185.72 40.7108C185.915 44.0197 184.745 46.6125 182.209 48.4893C179.674 50.3166 176.09 51.2302 171.458 51.2302ZM163.631 28.3394H179.137V27.969C179.137 25.0058 178.504 22.8328 177.236 21.4499C175.968 20.0671 174.042 19.3757 171.458 19.3757C168.825 19.3757 166.85 20.0918 165.533 21.524C164.265 22.9562 163.631 25.1046 163.631 27.969V28.3394Z" fill="white"/>
<path d="M134.895 50.2362C133.164 50.2362 131.312 49.9957 129.34 49.5147C127.368 49.0819 125.757 48.4566 124.506 47.6389L124.362 41.7229C125.66 42.4444 127.103 43.0216 128.691 43.4544C130.278 43.8392 131.745 44.0316 133.091 44.0316C135.689 44.0316 137.565 43.2861 138.719 41.7951C139.921 40.2559 140.523 37.9713 140.523 34.9412V27.1493C140.523 24.504 140.066 22.5801 139.152 21.3776C138.238 20.1271 136.843 19.5018 134.967 19.5018C133.38 19.5018 131.769 19.9828 130.133 20.9447C128.498 21.8586 126.454 23.4458 124.001 25.7064L123.785 19.6461C125.324 18.2032 126.791 17.0007 128.186 16.0388C129.58 15.0768 130.999 14.3554 132.442 13.8744C133.885 13.3934 135.424 13.1529 137.06 13.1529C140.571 13.1529 143.216 14.2351 144.996 16.3995C146.823 18.5639 147.737 21.8586 147.737 26.2836V35.7348C147.737 40.4964 146.631 44.1038 144.418 46.5567C142.254 49.0097 139.08 50.2362 134.895 50.2362ZM119.023 62.7175C118.494 62.7175 118.229 62.453 118.229 61.9239V22.3877C118.229 21.1852 118.181 19.9106 118.085 18.5639C117.989 17.2172 117.869 16.0147 117.724 14.9566C117.676 14.3313 117.941 14.0187 118.518 14.0187H123.64C124.169 14.0187 124.458 14.2592 124.506 14.7401C124.602 15.1249 124.698 15.63 124.795 16.2552C124.891 16.8805 124.963 17.5058 125.011 18.131C125.059 18.7082 125.083 19.1411 125.083 19.4297L125.444 23.2534V61.9239C125.444 62.453 125.179 62.7175 124.65 62.7175H119.023Z" fill="white"/>
<path d="M89.8407 51.2302C83.6842 51.2302 79.0668 49.7053 75.9886 46.6554C72.9584 43.5563 71.4434 39.1783 71.4434 33.5212V18.8375C71.4434 13.1313 72.9584 8.75322 75.9886 5.70334C79.0668 2.65345 83.6842 1.12851 89.8407 1.12851C95.9972 1.12851 100.591 2.65345 103.621 5.70334C106.699 8.75322 108.238 13.1313 108.238 18.8375V33.5212C108.238 39.1783 106.699 43.5563 103.621 46.6554C100.591 49.7053 95.9972 51.2302 89.8407 51.2302ZM89.8407 44.6631C93.4961 44.6631 96.2617 43.7039 98.1376 41.7854C100.013 39.8178 100.951 36.9892 100.951 33.2999V19.0589C100.951 15.3203 100.013 12.4918 98.1376 10.5733C96.2617 8.65484 93.4961 7.6956 89.8407 7.6956C86.2334 7.6956 83.4678 8.65484 81.5439 10.5733C79.6681 12.4918 78.7302 15.3203 78.7302 19.0589V33.2999C78.7302 36.9892 79.6681 39.8178 81.5439 41.7854C83.4678 43.7039 86.2334 44.6631 89.8407 44.6631Z" fill="white"/>
<path d="M0 51.2302V1.12851H50.1017V51.2302H0ZM3.08002 12.8326H11.7041V4.20853H3.08002V12.8326ZM14.8526 12.8326H23.4766V4.20853H14.8526V12.8326ZM26.5566 12.8326H35.1807V4.20853H26.5566V12.8326ZM38.3292 12.8326H47.0217V4.20853H38.3292V12.8326ZM3.08002 24.6051H11.7041V15.9811H3.08002V24.6051ZM14.8526 24.6051H23.4766V15.9811H14.8526V24.6051ZM26.5566 24.6051H35.1807V15.9811H26.5566V24.6051ZM38.3292 24.6051H47.0217V15.9811H38.3292V24.6051ZM3.08002 36.3092H11.7041V27.6852H3.08002V36.3092ZM14.8526 36.3092H23.4766V27.6852H14.8526V36.3092ZM26.5566 36.3092H35.1807V27.6852H26.5566V36.3092ZM38.3292 36.3092H47.0217V27.6852H38.3292V36.3092ZM3.08002 48.1502H11.7041V39.3892H3.08002V48.1502ZM14.8526 48.1502H23.4766V39.3892H14.8526V48.1502ZM26.5566 48.1502H35.1807V39.3892H26.5566V48.1502ZM38.3292 48.1502H47.0217V39.3892H38.3292V48.1502Z" fill="white"/>
</svg>
